<svg width="7" height="12" viewBox="0 0 7 12" fill="none" xmlns="http://www.w3.org/2000/svg">
<path d="M0.582972 0.293762C0.490268 0.386276 0.41672 0.496165 0.366539 0.617138C0.316358 0.738111 0.290527 0.867794 0.290527 0.998762C0.290527 1.12973 0.316358 1.25941 0.366539 1.38039C0.41672 1.50136 0.490268 1.61125 0.582972 1.70376L4.46297 5.58376L0.582972 9.46376C0.395994 9.65074 0.290951 9.90434 0.290951 10.1688C0.290951 10.4332 0.395994 10.6868 0.582972 10.8738C0.769949 11.0607 1.02355 11.1658 1.28797 11.1658C1.5524 11.1658 1.80599 11.0607 1.99297 10.8738L6.58297 6.28376C6.67567 6.19125 6.74922 6.08136 6.7994 5.96039C6.84959 5.83941 6.87541 5.70973 6.87541 5.57876C6.87541 5.44779 6.84959 5.31811 6.7994 5.19714C6.74922 5.07616 6.67567 4.96628 6.58297 4.87376L1.99297 0.283762C1.61297 -0.0962379 0.972972 -0.0962377 0.582972 0.293762Z" fill="#0A0B65"/>
</svg>
